<svg width="275" height="64" viewBox="0 0 275 64" fill="none" xmlns="http://www.w3.org/2000/svg">
<g filter="url(#filter0_d_1334_384)">
<rect x="4" width="267" height="56" rx="8" fill="#763131"/>
</g>
<path d="M72.5145 28.1807H69.7972L69.7826 26.8403H72.1556C72.556 26.8403 72.8954 26.7817 73.1737 26.6646C73.4569 26.5425 73.6717 26.3691 73.8182 26.1445C73.9647 25.915 74.0379 25.6392 74.0379 25.3169C74.0379 24.9604 73.9696 24.6699 73.8329 24.4453C73.6961 24.2207 73.4862 24.0571 73.203 23.9546C72.9247 23.8521 72.5682 23.8008 72.1336 23.8008H70.3539V33H68.5155V22.3359H72.1336C72.7196 22.3359 73.242 22.3921 73.701 22.5044C74.1649 22.6167 74.558 22.7925 74.8802 23.0317C75.2074 23.2661 75.454 23.564 75.62 23.9253C75.7909 24.2866 75.8763 24.7163 75.8763 25.2144C75.8763 25.6538 75.7713 26.0566 75.5614 26.4229C75.3514 26.7842 75.0414 27.0796 74.6312 27.3091C74.221 27.5386 73.7108 27.6753 73.1004 27.7192L72.5145 28.1807ZM72.4339 33H69.2186L70.0462 31.5425H72.4339C72.849 31.5425 73.1957 31.4741 73.474 31.3374C73.7523 31.1958 73.9598 31.0029 74.0965 30.7588C74.2381 30.5098 74.3089 30.2192 74.3089 29.8872C74.3089 29.5405 74.2479 29.2402 74.1258 28.9863C74.0038 28.7275 73.8109 28.5298 73.5472 28.3931C73.2835 28.2515 72.9393 28.1807 72.5145 28.1807H70.4491L70.4637 26.8403H73.1517L73.5692 27.3457C74.1551 27.3652 74.6361 27.4946 75.0121 27.7339C75.3929 27.9731 75.6761 28.2832 75.8617 28.6641C76.0472 29.0449 76.14 29.4551 76.14 29.8945C76.14 30.5732 75.9911 31.1421 75.6932 31.6011C75.4002 32.0601 74.9779 32.4092 74.4261 32.6484C73.8744 32.8828 73.2103 33 72.4339 33ZM84.963 31.5425V33H79.3014V31.5425H84.963ZM79.8214 22.3359V33H77.983V22.3359H79.8214ZM84.2233 26.7891V28.2246H79.3014V26.7891H84.2233ZM84.9264 22.3359V23.8008H79.3014V22.3359H84.9264ZM94.6429 27.5508V31.623C94.4916 31.8232 94.2548 32.043 93.9325 32.2822C93.6151 32.5166 93.1927 32.7192 92.6654 32.8901C92.1381 33.061 91.4813 33.1465 90.6952 33.1465C90.0262 33.1465 89.4134 33.0342 88.8568 32.8096C88.3002 32.5801 87.8192 32.2456 87.4139 31.8062C87.0135 31.3667 86.7035 30.832 86.4838 30.2021C86.264 29.5674 86.1542 28.8447 86.1542 28.0342V27.2944C86.1542 26.4888 86.2543 25.771 86.4545 25.1411C86.6595 24.5063 86.9525 23.9692 87.3334 23.5298C87.7142 23.0903 88.1732 22.7583 88.7103 22.5337C89.2523 22.3042 89.8651 22.1895 90.5487 22.1895C91.4227 22.1895 92.1454 22.3359 92.7167 22.6289C93.2928 22.917 93.7372 23.3174 94.0497 23.8301C94.3622 24.3428 94.5599 24.9287 94.6429 25.5879H92.8412C92.7826 25.2168 92.6678 24.8848 92.4969 24.5918C92.3309 24.2988 92.0917 24.0693 91.7792 23.9033C91.4716 23.7324 91.0712 23.647 90.578 23.647C90.1532 23.647 89.7797 23.7275 89.4574 23.8887C89.1351 24.0498 88.8666 24.2866 88.6517 24.5991C88.4418 24.9116 88.2831 25.2925 88.1757 25.7417C88.0682 26.1909 88.0145 26.7036 88.0145 27.2798V28.0342C88.0145 28.6201 88.0756 29.1401 88.1976 29.5942C88.3246 30.0483 88.5052 30.4316 88.7396 30.7441C88.9789 31.0566 89.2694 31.2935 89.6112 31.4546C89.953 31.6108 90.3387 31.689 90.7684 31.689C91.1884 31.689 91.5326 31.6548 91.8011 31.5864C92.0697 31.5132 92.2821 31.4277 92.4384 31.3301C92.5995 31.2275 92.724 31.1299 92.8119 31.0371V28.9204H90.5926V27.5508H94.6429ZM98.632 22.3359V33H96.7936V22.3359H98.632ZM109.367 22.3359V33H107.528L102.745 25.3608V33H100.907V22.3359H102.745L107.543 29.9897V22.3359H109.367ZM119.425 23.7568L116.239 33H114.312L118.326 22.3359H119.557L119.425 23.7568ZM122.091 33L118.897 23.7568L118.758 22.3359H119.996L124.024 33H122.091ZM121.937 29.0449V30.5024H116.136V29.0449H121.937ZM129.258 29.0229H126.483V27.5654H129.258C129.742 27.5654 130.132 27.4873 130.43 27.3311C130.728 27.1748 130.945 26.96 131.082 26.6865C131.224 26.4082 131.295 26.0908 131.295 25.7344C131.295 25.3975 131.224 25.0825 131.082 24.7896C130.945 24.4917 130.728 24.2524 130.43 24.0718C130.132 23.8911 129.742 23.8008 129.258 23.8008H127.047V33H125.208V22.3359H129.258C130.084 22.3359 130.784 22.4824 131.361 22.7754C131.942 23.0635 132.383 23.4639 132.686 23.9766C132.989 24.4844 133.14 25.0654 133.14 25.7197C133.14 26.4082 132.989 26.999 132.686 27.4922C132.383 27.9854 131.942 28.3638 131.361 28.6274C130.784 28.8911 130.084 29.0229 129.258 29.0229ZM138.829 29.0229H136.053V27.5654H138.829C139.312 27.5654 139.703 27.4873 140 27.3311C140.298 27.1748 140.516 26.96 140.652 26.6865C140.794 26.4082 140.865 26.0908 140.865 25.7344C140.865 25.3975 140.794 25.0825 140.652 24.7896C140.516 24.4917 140.298 24.2524 140 24.0718C139.703 23.8911 139.312 23.8008 138.829 23.8008H136.617V33H134.778V22.3359H138.829C139.654 22.3359 140.354 22.4824 140.931 22.7754C141.512 23.0635 141.954 23.4639 142.256 23.9766C142.559 24.4844 142.71 25.0654 142.71 25.7197C142.71 26.4082 142.559 26.999 142.256 27.4922C141.954 27.9854 141.512 28.3638 140.931 28.6274C140.354 28.8911 139.654 29.0229 138.829 29.0229ZM151.028 31.5425V33H145.674V31.5425H151.028ZM146.187 22.3359V33H144.348V22.3359H146.187ZM154.402 22.3359V33H152.563V22.3359H154.402ZM162.976 29.5283H164.807C164.748 30.2266 164.553 30.8491 164.221 31.396C163.889 31.938 163.423 32.3652 162.822 32.6777C162.221 32.9902 161.491 33.1465 160.632 33.1465C159.973 33.1465 159.38 33.0293 158.852 32.7949C158.325 32.5557 157.873 32.2188 157.497 31.7842C157.121 31.3447 156.833 30.8149 156.633 30.1948C156.438 29.5747 156.34 28.8813 156.34 28.1147V27.2285C156.34 26.4619 156.44 25.7686 156.64 25.1484C156.845 24.5283 157.138 23.9985 157.519 23.5591C157.9 23.1147 158.357 22.7754 158.889 22.541C159.426 22.3066 160.029 22.1895 160.698 22.1895C161.548 22.1895 162.265 22.3457 162.851 22.6582C163.437 22.9707 163.891 23.4028 164.214 23.9546C164.541 24.5063 164.741 25.1387 164.814 25.8516H162.983C162.934 25.3926 162.827 24.9995 162.661 24.6724C162.5 24.3452 162.26 24.0962 161.943 23.9253C161.626 23.7495 161.211 23.6616 160.698 23.6616C160.278 23.6616 159.912 23.7397 159.599 23.896C159.287 24.0522 159.026 24.2817 158.816 24.5845C158.606 24.8872 158.447 25.2607 158.34 25.7051C158.237 26.1445 158.186 26.6475 158.186 27.2139V28.1147C158.186 28.6519 158.232 29.1401 158.325 29.5796C158.423 30.0142 158.569 30.3877 158.764 30.7002C158.965 31.0127 159.218 31.2544 159.526 31.4253C159.834 31.5962 160.202 31.6816 160.632 31.6816C161.155 31.6816 161.577 31.5986 161.899 31.4326C162.226 31.2666 162.473 31.0249 162.639 30.7075C162.81 30.3853 162.922 29.9922 162.976 29.5283ZM170.62 23.7568L167.434 33H165.507L169.521 22.3359H170.751L170.62 23.7568ZM173.286 33L170.092 23.7568L169.953 22.3359H171.191L175.219 33H173.286ZM173.132 29.0449V30.5024H167.331V29.0449H173.132ZM179.867 22.3359V33H178.044V22.3359H179.867ZM183.215 22.3359V23.8008H174.726V22.3359H183.215ZM186.574 22.3359V33H184.735V22.3359H186.574ZM197.352 27.375V27.9609C197.352 28.7666 197.247 29.4893 197.037 30.1289C196.827 30.7686 196.527 31.313 196.136 31.7622C195.751 32.2114 195.287 32.5557 194.745 32.7949C194.203 33.0293 193.602 33.1465 192.943 33.1465C192.289 33.1465 191.691 33.0293 191.149 32.7949C190.612 32.5557 190.145 32.2114 189.75 31.7622C189.354 31.313 189.047 30.7686 188.827 30.1289C188.612 29.4893 188.505 28.7666 188.505 27.9609V27.375C188.505 26.5693 188.612 25.8491 188.827 25.2144C189.042 24.5747 189.344 24.0303 189.735 23.5811C190.131 23.127 190.597 22.7827 191.134 22.5483C191.676 22.3091 192.274 22.1895 192.928 22.1895C193.588 22.1895 194.188 22.3091 194.73 22.5483C195.272 22.7827 195.739 23.127 196.129 23.5811C196.52 24.0303 196.82 24.5747 197.03 25.2144C197.245 25.8491 197.352 26.5693 197.352 27.375ZM195.514 27.9609V27.3604C195.514 26.7646 195.455 26.2397 195.338 25.7856C195.226 25.3267 195.057 24.9434 194.833 24.6357C194.613 24.3232 194.342 24.0889 194.02 23.9326C193.698 23.7715 193.334 23.6909 192.928 23.6909C192.523 23.6909 192.162 23.7715 191.844 23.9326C191.527 24.0889 191.256 24.3232 191.031 24.6357C190.812 24.9434 190.643 25.3267 190.526 25.7856C190.409 26.2397 190.35 26.7646 190.35 27.3604V27.9609C190.35 28.5566 190.409 29.084 190.526 29.543C190.643 30.002 190.814 30.3901 191.039 30.7075C191.268 31.02 191.542 31.2568 191.859 31.418C192.177 31.5742 192.538 31.6523 192.943 31.6523C193.353 31.6523 193.717 31.5742 194.034 31.418C194.352 31.2568 194.62 31.02 194.84 30.7075C195.06 30.3901 195.226 30.002 195.338 29.543C195.455 29.084 195.514 28.5566 195.514 27.9609ZM207.64 22.3359V33H205.802L201.019 25.3608V33H199.181V22.3359H201.019L205.816 29.9897V22.3359H207.64Z" fill="#F6F5F5"/>
<defs>
<filter id="filter0_d_1334_384" x="0" y="0" width="275" height="64" filterUnits="userSpaceOnUse" color-interpolation-filters="sRGB">
<feFlood flood-opacity="0" result="BackgroundImageFix"/>
<feColorMatrix in="SourceAlpha" type="matrix" values="0 0 0 0 0 0 0 0 0 0 0 0 0 0 0 0 0 0 127 0" result="hardAlpha"/>
<feOffset dy="4"/>
<feGaussianBlur stdDeviation="2"/>
<feComposite in2="hardAlpha" operator="out"/>
<feColorMatrix type="matrix" values="0 0 0 0 0 0 0 0 0 0 0 0 0 0 0 0 0 0 0.25 0"/>
<feBlend mode="normal" in2="BackgroundImageFix" result="effect1_dropShadow_1334_384"/>
<feBlend mode="normal" in="SourceGraphic" in2="effect1_dropShadow_1334_384" result="shape"/>
</filter>
</defs>
</svg>
