<svg width="42" height="32" viewBox="0 0 42 32" fill="none" xmlns="http://www.w3.org/2000/svg">
<path d="M15.3462 32C14.9872 31.9988 14.6322 31.9227 14.3034 31.7765C13.9746 31.6302 13.6789 31.4169 13.4348 31.1498L0.70973 17.4133C0.23405 16.8989 -0.0207705 16.2138 0.00132596 15.5088C0.0234224 14.8037 0.320626 14.1364 0.827555 13.6537C1.33448 13.171 2.00961 12.9124 2.70442 12.9349C3.39923 12.9573 4.05681 13.2589 4.53249 13.7733L15.32 25.4373L37.3401 0.993319C37.5636 0.710944 37.8416 0.477908 38.157 0.308523C38.4725 0.139139 38.8187 0.0369829 39.1745 0.00832939C39.5303 -0.0203242 39.8881 0.0251302 40.2259 0.1419C40.5637 0.25867 40.8745 0.444289 41.139 0.687359C41.4036 0.930428 41.6164 1.22582 41.7644 1.55538C41.9123 1.88494 41.9923 2.24172 41.9995 2.6038C42.0066 2.96589 41.9407 3.32563 41.8059 3.66093C41.671 3.99624 41.47 4.30003 41.2153 4.55364L17.2838 31.1232C17.0419 31.3952 16.7473 31.6134 16.4184 31.7643C16.0894 31.9152 15.7333 31.9954 15.3724 32H15.3462Z" fill="#763131"/>
</svg>
