<svg width="42" height="42" viewBox="0 0 42 42" fill="none" xmlns="http://www.w3.org/2000/svg">
<path d="M20.5624 32.3125L11.6177 19.6812C10.1536 17.9526 9.21075 15.8436 8.89895 13.5999C8.58715 11.3561 8.91923 9.06995 9.85651 7.00763C10.7938 4.94531 12.2977 3.19172 14.1931 1.95107C16.0885 0.710432 18.2973 0.0338067 20.5624 0C23.7022 0.0310277 26.7017 1.30512 28.904 3.54323C31.1064 5.78134 32.332 8.80104 32.3124 11.9409C32.3136 14.6801 31.381 17.3378 29.6686 19.4756L20.5624 32.3125ZM20.5624 2.9375C18.2004 2.96462 15.9457 3.92799 14.2935 5.61607C12.6412 7.30414 11.7264 9.57893 11.7499 11.9409C11.7597 14.0968 12.5353 16.179 13.9383 17.8159L20.5624 27.2013L27.3627 17.625C28.6553 16.0115 29.3644 14.0083 29.3749 11.9409C29.3984 9.57893 28.4835 7.30414 26.8313 5.61607C25.179 3.92799 22.9243 2.96462 20.5624 2.9375Z" fill="#763131"/>
<path d="M20.5625 13.2188C22.1848 13.2188 23.5 11.9036 23.5 10.2812C23.5 8.65891 22.1848 7.34375 20.5625 7.34375C18.9402 7.34375 17.625 8.65891 17.625 10.2812C17.625 11.9036 18.9402 13.2188 20.5625 13.2188Z" fill="#763131"/>
<path d="M38.1875 14.6875H35.25V17.625H38.1875V38.1875H2.9375V17.625H5.875V14.6875H2.9375C2.15843 14.6875 1.41126 14.997 0.860374 15.5479C0.309486 16.0988 0 16.8459 0 17.625V38.1875C0 38.9666 0.309486 39.7137 0.860374 40.2646C1.41126 40.8155 2.15843 41.125 2.9375 41.125H38.1875C38.9666 41.125 39.7137 40.8155 40.2646 40.2646C40.8155 39.7137 41.125 38.9666 41.125 38.1875V17.625C41.125 16.8459 40.8155 16.0988 40.2646 15.5479C39.7137 14.997 38.9666 14.6875 38.1875 14.6875Z" fill="#763131"/>
</svg>
