<svg width="198" height="70" viewBox="0 0 198 70" fill="none" xmlns="http://www.w3.org/2000/svg">
<path d="M21.44 42.568V24.712H23.36C24.2133 24.712 24.928 24.872 25.504 25.192C26.1013 25.512 26.56 26.0027 26.88 26.664C27.2 27.304 27.36 28.136 27.36 29.16C27.36 30.1627 27.2 31.016 26.88 31.72C26.56 32.4027 26.0907 32.9253 25.472 33.288C24.8747 33.6293 24.128 33.8 23.232 33.8H20.448V36.232H24.512C26.368 36.232 27.9573 35.944 29.28 35.368C30.624 34.7707 31.6587 33.9387 32.384 32.872C33.1093 31.784 33.472 30.5147 33.472 29.064C33.472 26.9093 32.704 25.2453 31.168 24.072C29.632 22.8773 27.4667 22.28 24.672 22.28H13.024V24.36H13.344C13.8987 24.36 14.3573 24.4347 14.72 24.584C15.0827 24.7333 15.264 25.0427 15.264 25.512V41.768C15.264 42.2373 15.0827 42.5467 14.72 42.696C14.3573 42.8453 13.8987 42.92 13.344 42.92H13.024V45H24V42.92H23.2C22.9867 42.92 22.7733 42.92 22.56 42.92C22.368 42.8987 22.1867 42.8773 22.016 42.856C21.8453 42.8133 21.7067 42.7813 21.6 42.76C21.4933 42.7173 21.44 42.6533 21.44 42.568ZM42.8665 28.584V39.784C42.8665 40.3387 42.9198 40.7973 43.0265 41.16C43.1545 41.5013 43.3465 41.7573 43.6025 41.928C43.8585 42.0987 44.1998 42.184 44.6265 42.184C45.0958 42.184 45.5438 42.056 45.9705 41.8C46.3972 41.544 46.8132 41.1493 47.2185 40.616C47.6238 40.0613 48.0185 39.3467 48.4025 38.472L48.4665 41.384C48.0398 42.2587 47.5172 42.984 46.8985 43.56C46.3012 44.136 45.6292 44.5733 44.8825 44.872C44.1358 45.1707 43.3145 45.32 42.4185 45.32C41.3305 45.32 40.3812 45.1173 39.5705 44.712C38.7598 44.2853 38.1305 43.6667 37.6825 42.856C37.2558 42.024 37.0425 41 37.0425 39.784V31.752C37.0425 31.4107 36.9252 31.176 36.6905 31.048C36.4558 30.92 36.0825 30.8027 35.5705 30.696L35.2825 30.632V28.584H42.8665ZM53.5865 28.584V41.992C53.5865 42.2053 53.6505 42.376 53.7785 42.504C53.9065 42.632 54.0878 42.728 54.3225 42.792C54.5572 42.856 54.8345 42.9093 55.1545 42.952L55.3465 42.984V45H48.1465V41.32L47.7625 41.448V31.752C47.7625 31.4107 47.6025 31.176 47.2825 31.048C46.9625 30.8987 46.5465 30.7813 46.0345 30.696L45.5545 30.632V28.584H53.5865ZM64.1438 21.448V42.088C64.1438 42.472 64.3038 42.728 64.6237 42.856C64.9438 42.984 65.3384 43.048 65.8077 43.048H65.8398V45H56.5597V43.048H56.5917C57.0824 43.048 57.4877 42.984 57.8077 42.856C58.1277 42.728 58.2877 42.472 58.2877 42.088V24.584C58.2877 24.3707 58.2344 24.2 58.1277 24.072C58.0424 23.944 57.8931 23.8373 57.6797 23.752C57.4664 23.6667 57.1891 23.592 56.8477 23.528L56.5597 23.464V21.448H64.1438ZM77.0933 41.064C77.0933 40.7013 76.9866 40.4027 76.7733 40.168C76.5813 39.9333 76.3039 39.7413 75.9413 39.592C75.5999 39.4213 75.1946 39.272 74.7253 39.144C74.2773 39.016 73.7973 38.888 73.2853 38.76C72.6453 38.5893 71.9946 38.3973 71.3333 38.184C70.6719 37.9493 70.0639 37.64 69.5093 37.256C68.9759 36.872 68.5386 36.3813 68.1973 35.784C67.8559 35.1653 67.6853 34.3973 67.6853 33.48C67.6853 32.328 67.9839 31.368 68.5813 30.6C69.1999 29.8107 70.0426 29.2133 71.1093 28.808C72.1973 28.4027 73.4666 28.2 74.9173 28.2C76.1119 28.2 77.1359 28.296 77.9893 28.488C78.8426 28.6587 79.5359 28.872 80.0693 29.128C80.6026 29.3627 80.9759 29.5547 81.1893 29.704V33.032H77.1893V30.216C77.5093 30.1947 77.7546 30.2373 77.9253 30.344C78.0959 30.4293 78.1919 30.5467 78.2133 30.696C78.2559 30.8453 78.2559 31.016 78.2133 31.208C78.1706 31.3787 78.1066 31.5387 78.0213 31.688C77.7866 31.432 77.5199 31.2187 77.2213 31.048C76.9226 30.856 76.5813 30.7173 76.1973 30.632C75.8346 30.5467 75.4186 30.504 74.9493 30.504C74.1599 30.504 73.5519 30.664 73.1253 30.984C72.7199 31.2827 72.5173 31.688 72.5173 32.2C72.5173 32.584 72.6239 32.8933 72.8373 33.128C73.0506 33.3627 73.3386 33.5653 73.7013 33.736C74.0853 33.9067 74.5119 34.056 74.9813 34.184C75.4719 34.312 75.9839 34.4507 76.5173 34.6C77.1999 34.7707 77.8719 34.9733 78.5333 35.208C79.2159 35.4427 79.8346 35.752 80.3893 36.136C80.9653 36.52 81.4239 37.0107 81.7653 37.608C82.1066 38.184 82.2773 38.8987 82.2773 39.752C82.2773 40.9467 81.9679 41.96 81.3493 42.792C80.7519 43.6027 79.8559 44.232 78.6613 44.68C77.4879 45.1067 76.0373 45.32 74.3093 45.32C73.1573 45.32 72.1119 45.224 71.1733 45.032C70.2559 44.8613 69.4559 44.648 68.7733 44.392C68.1119 44.1147 67.5893 43.8587 67.2053 43.624V40.008H71.3013V43.72C70.9173 43.528 70.6293 43.3253 70.4373 43.112C70.2453 42.8987 70.1173 42.6853 70.0533 42.472C69.9893 42.2587 69.9893 42.0773 70.0533 41.928C70.1386 41.7573 70.2666 41.6507 70.4373 41.608C70.7359 41.9493 71.0773 42.2267 71.4613 42.44C71.8666 42.632 72.3039 42.7813 72.7733 42.888C73.2426 42.9733 73.7653 43.016 74.3413 43.016C74.9173 43.016 75.4079 42.9413 75.8133 42.792C76.2186 42.6427 76.5279 42.4293 76.7413 42.152C76.9759 41.8533 77.0933 41.4907 77.0933 41.064ZM89.8087 36.872C89.8087 37.832 89.8941 38.6853 90.0647 39.432C90.2354 40.1573 90.5021 40.776 90.8647 41.288C91.2274 41.7787 91.6754 42.152 92.2087 42.408C92.7634 42.6427 93.4034 42.76 94.1287 42.76C94.8967 42.76 95.5581 42.6213 96.1128 42.344C96.6674 42.0453 97.1474 41.6613 97.5527 41.192C97.9581 40.7227 98.2887 40.2533 98.5448 39.784L100.529 41.192C100.123 42.0027 99.5901 42.7173 98.9287 43.336C98.2674 43.9547 97.4674 44.4453 96.5287 44.808C95.6114 45.1493 94.5127 45.32 93.2327 45.32C91.3767 45.32 89.7447 44.9787 88.3367 44.296C86.9501 43.6133 85.8727 42.6427 85.1047 41.384C84.3367 40.104 83.9527 38.5893 83.9527 36.84C83.9527 35.1333 84.3261 33.64 85.0727 32.36C85.8407 31.0587 86.8754 30.056 88.1767 29.352C89.4994 28.6267 90.9927 28.264 92.6567 28.264C94.0007 28.264 95.1741 28.4667 96.1768 28.872C97.2007 29.256 98.0541 29.8427 98.7367 30.632C99.4194 31.4213 99.9421 32.4027 100.305 33.576C100.667 34.7493 100.849 36.1253 100.849 37.704H89.0407L89.0087 35.432H96.1128L95.4087 36.36C95.3874 35.272 95.3234 34.3653 95.2167 33.64C95.1101 32.9147 94.9501 32.3387 94.7367 31.912C94.5234 31.4853 94.2567 31.1867 93.9367 31.016C93.6167 30.824 93.2327 30.728 92.7847 30.728C92.3367 30.728 91.9314 30.8453 91.5687 31.08C91.2061 31.3147 90.8967 31.6773 90.6407 32.168C90.3847 32.6587 90.1821 33.2987 90.0327 34.088C89.8834 34.856 89.8087 35.784 89.8087 36.872ZM112.664 42.792C113.432 42.792 114.083 42.6853 114.616 42.472C115.149 42.2587 115.555 41.9387 115.832 41.512C116.131 41.064 116.28 40.5093 116.28 39.848C116.28 39.272 116.131 38.792 115.832 38.408C115.555 38.0027 115.149 37.6613 114.616 37.384C114.104 37.1067 113.485 36.8613 112.76 36.648C112.056 36.4133 111.267 36.168 110.392 35.912C109.56 35.656 108.749 35.3573 107.96 35.016C107.171 34.6533 106.456 34.2053 105.816 33.672C105.197 33.1173 104.696 32.4347 104.312 31.624C103.949 30.8133 103.768 29.8213 103.768 28.648C103.768 27.2187 104.109 26.0133 104.792 25.032C105.496 24.0293 106.424 23.272 107.576 22.76C108.749 22.2267 110.029 21.96 111.416 21.96C112.589 21.96 113.624 22.12 114.52 22.44C115.416 22.76 116.195 23.2933 116.856 24.04C117.539 24.7653 118.104 25.7573 118.552 27.016L116.92 26.792L117.56 22.28H119.864V28.296H117.176C116.92 27.4853 116.536 26.792 116.024 26.216C115.533 25.64 114.947 25.2027 114.264 24.904C113.603 24.6053 112.888 24.456 112.12 24.456C111.416 24.456 110.819 24.5627 110.328 24.776C109.837 24.9893 109.464 25.288 109.208 25.672C108.952 26.056 108.824 26.5253 108.824 27.08C108.824 27.6133 108.963 28.072 109.24 28.456C109.539 28.8187 109.933 29.128 110.424 29.384C110.936 29.6187 111.523 29.832 112.184 30.024C112.867 30.216 113.581 30.408 114.328 30.6C115.267 30.856 116.152 31.1547 116.984 31.496C117.837 31.8373 118.605 32.2853 119.288 32.84C119.971 33.3733 120.504 34.0453 120.888 34.856C121.272 35.6453 121.464 36.6267 121.464 37.8C121.464 39.3147 121.123 40.6373 120.44 41.768C119.779 42.8987 118.819 43.7733 117.56 44.392C116.323 45.0107 114.851 45.32 113.144 45.32C111.907 45.32 110.723 45.128 109.592 44.744C108.483 44.36 107.491 43.7413 106.616 42.888C105.741 42.0133 105.048 40.84 104.536 39.368L106.264 39.752L105.656 45H103.192V37.864H106.072C106.435 38.9093 106.947 39.8053 107.608 40.552C108.291 41.2773 109.069 41.832 109.944 42.216C110.819 42.6 111.725 42.792 112.664 42.792ZM146.703 28.584H159.407V30.856H146.703V28.584ZM160.463 21.384V23.848C160.249 23.784 159.919 23.688 159.471 23.56C159.044 23.432 158.553 23.368 157.999 23.368C157.423 23.368 156.921 23.4853 156.495 23.72C156.089 23.9333 155.769 24.2853 155.535 24.776C155.321 25.2667 155.215 25.928 155.215 26.76V42.76C155.215 42.824 155.321 42.888 155.535 42.952C155.769 42.9947 156.057 43.0267 156.399 43.048C156.761 43.048 157.145 43.048 157.551 43.048H157.903V45H147.055V43.048H147.439C148.057 43.048 148.537 42.9733 148.879 42.824C149.22 42.6747 149.391 42.408 149.391 42.024V27.336C149.391 25.736 149.743 24.4773 150.447 23.56C151.172 22.6427 152.121 21.992 153.295 21.608C154.489 21.2027 155.791 21 157.199 21C157.924 21 158.585 21.0427 159.183 21.128C159.78 21.192 160.207 21.2773 160.463 21.384ZM166.092 36.872C166.092 37.832 166.178 38.6853 166.348 39.432C166.519 40.1573 166.786 40.776 167.148 41.288C167.511 41.7787 167.959 42.152 168.492 42.408C169.047 42.6427 169.687 42.76 170.412 42.76C171.18 42.76 171.842 42.6213 172.396 42.344C172.951 42.0453 173.431 41.6613 173.836 41.192C174.242 40.7227 174.572 40.2533 174.828 39.784L176.812 41.192C176.407 42.0027 175.874 42.7173 175.212 43.336C174.551 43.9547 173.751 44.4453 172.812 44.808C171.895 45.1493 170.796 45.32 169.516 45.32C167.66 45.32 166.028 44.9787 164.62 44.296C163.234 43.6133 162.156 42.6427 161.388 41.384C160.62 40.104 160.236 38.5893 160.236 36.84C160.236 35.1333 160.61 33.64 161.356 32.36C162.124 31.0587 163.159 30.056 164.46 29.352C165.783 28.6267 167.276 28.264 168.94 28.264C170.284 28.264 171.458 28.4667 172.46 28.872C173.484 29.256 174.338 29.8427 175.02 30.632C175.703 31.4213 176.226 32.4027 176.588 33.576C176.951 34.7493 177.132 36.1253 177.132 37.704H165.324L165.292 35.432H172.396L171.692 36.36C171.671 35.272 171.607 34.3653 171.5 33.64C171.394 32.9147 171.234 32.3387 171.02 31.912C170.807 31.4853 170.54 31.1867 170.22 31.016C169.9 30.824 169.516 30.728 169.068 30.728C168.62 30.728 168.215 30.8453 167.852 31.08C167.49 31.3147 167.18 31.6773 166.924 32.168C166.668 32.6587 166.466 33.2987 166.316 34.088C166.167 34.856 166.092 35.784 166.092 36.872Z" fill="#763131"/>
<path d="M0 50.5591H126.5C126.5 50.5591 127.07 20.6438 136 8.59435C148.679 -8.51424 136 64.5944 136 64.5944L147.5 50.5591H175" stroke="#763131" stroke-width="3"/>
<path d="M123 29.5C123 29.5 131.339 28.7809 137.137 29.0089C142.935 29.2369 147 34 147 34" stroke="#763131" stroke-width="3"/>
</svg>
