<svg width="45" height="45" viewBox="0 0 45 45" fill="none" xmlns="http://www.w3.org/2000/svg">
<circle cx="22.5" cy="22.5" r="22.5" fill="#EAEAEA"/>
<path d="M21.24 22.36V25.14H23.32V23.34C23.8267 23.1933 24.34 23.0133 24.86 22.8C25.38 22.5733 25.86 22.3 26.3 21.98C26.74 21.6467 27.0933 21.2533 27.36 20.8C27.6267 20.3333 27.76 19.7867 27.76 19.16C27.76 18.4267 27.5667 17.78 27.18 17.22C26.8067 16.66 26.24 16.22 25.48 15.9C24.7333 15.58 23.8 15.42 22.68 15.42C21.8533 15.42 21.1133 15.5133 20.46 15.7C19.82 15.8733 19.2733 16.0933 18.82 16.36C18.38 16.6133 18.0533 16.86 17.84 17.1V19.28H20.74V17.2C20.62 17.2267 20.5133 17.2667 20.42 17.32C20.3267 17.3733 20.2467 17.4467 20.18 17.54C20.1267 17.62 20.0867 17.7133 20.06 17.82C20.0467 17.9267 20.06 18.0533 20.1 18.2C20.2733 17.9733 20.4667 17.78 20.68 17.62C20.9067 17.4467 21.16 17.32 21.44 17.24C21.72 17.1467 22.02 17.1 22.34 17.1C22.7667 17.1 23.12 17.18 23.4 17.34C23.6933 17.4867 23.9067 17.7067 24.04 18C24.1867 18.28 24.26 18.6067 24.26 18.98C24.26 19.4067 24.1867 19.7933 24.04 20.14C23.8933 20.4867 23.6867 20.7933 23.42 21.06C23.1533 21.3267 22.8333 21.5667 22.46 21.78C22.0867 21.9933 21.68 22.1867 21.24 22.36ZM22.28 30.24C21.6267 30.24 21.1133 30.0667 20.74 29.72C20.38 29.3733 20.2 28.92 20.2 28.36C20.2 27.7867 20.38 27.3267 20.74 26.98C21.1133 26.62 21.6267 26.44 22.28 26.44C22.9333 26.44 23.44 26.62 23.8 26.98C24.1733 27.3267 24.36 27.7867 24.36 28.36C24.36 28.92 24.1733 29.3733 23.8 29.72C23.44 30.0667 22.9333 30.24 22.28 30.24Z" fill="#695A5A"/>
</svg>
