<svg width="39" height="43" viewBox="0 0 39 43" fill="none" xmlns="http://www.w3.org/2000/svg">
<path fill-rule="evenodd" clip-rule="evenodd" d="M5.7135 35.1609C15.981 33.6782 23.0505 33.8057 33.3315 35.2128C34.076 35.3195 34.7564 35.6889 35.2469 36.2528C35.7374 36.8166 36.0049 37.5369 36 38.2805C36 38.9922 35.7525 39.6832 35.3055 40.2229C34.5264 41.1639 33.7282 42.0893 32.9115 42.9985H36.873C37.122 42.7049 37.3725 42.4054 37.626 42.1015C38.5157 41.023 39.0011 39.6737 39 38.282C39 35.2795 36.783 32.6922 33.7425 32.2771C23.2185 30.8374 15.8625 30.6995 5.28 32.2281C2.208 32.6715 0 35.2988 0 38.3221C0 39.6639 0.4425 40.9909 1.281 42.0659C1.5285 42.3832 1.773 42.6946 2.016 43H5.8815C5.12163 42.1008 4.38048 41.1862 3.6585 40.257C3.22944 39.7007 2.99799 39.0201 3 38.3206C3 36.7237 4.161 35.3848 5.7135 35.1609ZM19.5 20.7579C20.6819 20.7579 21.8522 20.5278 22.9441 20.0807C24.0361 19.6336 25.0282 18.9783 25.864 18.1523C26.6997 17.3262 27.3626 16.3454 27.8149 15.2661C28.2672 14.1868 28.5 13.0299 28.5 11.8617C28.5 10.6934 28.2672 9.53656 27.8149 8.45721C27.3626 7.37787 26.6997 6.39716 25.864 5.57106C25.0282 4.74497 24.0361 4.08968 22.9441 3.6426C21.8522 3.19552 20.6819 2.96542 19.5 2.96542C17.1131 2.96542 14.8239 3.9027 13.136 5.57106C11.4482 7.23943 10.5 9.50223 10.5 11.8617C10.5 14.2211 11.4482 16.4839 13.136 18.1523C14.8239 19.8206 17.1131 20.7579 19.5 20.7579ZM19.5 23.7233C22.6826 23.7233 25.7348 22.4736 27.9853 20.2491C30.2357 18.0246 31.5 15.0076 31.5 11.8617C31.5 8.71575 30.2357 5.69869 27.9853 3.4742C25.7348 1.24971 22.6826 0 19.5 0C16.3174 0 13.2652 1.24971 11.0147 3.4742C8.76428 5.69869 7.5 8.71575 7.5 11.8617C7.5 15.0076 8.76428 18.0246 11.0147 20.2491C13.2652 22.4736 16.3174 23.7233 19.5 23.7233Z" fill="#763131"/>
</svg>
